<svg xmlns="http://www.w3.org/2000/svg" xmlns:xlink="http://www.w3.org/1999/xlink" width="334" zoomAndPan="magnify" viewBox="0 0 250.5 159.000002" height="212" preserveAspectRatio="xMidYMid meet" version="1.0"><defs><clipPath id="d3f6ee239a"><path d="M 0.535156 0 L 249.46875 0 L 249.46875 158 L 0.535156 158 Z M 0.535156 0 " clip-rule="nonzero"/></clipPath><clipPath id="e08bde5682"><path d="M 54.167969 26 L 238.792969 26 L 238.792969 146.867188 L 54.167969 146.867188 Z M 54.167969 26 " clip-rule="nonzero"/></clipPath><clipPath id="bc8a9d896e"><path d="M 236.625 112.113281 C 176.425781 138.898438 170.628906 140.554688 160.6875 142.488281 C 147.15625 144.972656 124.511719 147.183594 112.640625 146.355469 C 105.460938 145.800781 101.316406 145.527344 96.070312 142.488281 C 89.167969 138.347656 83.09375 129.234375 77.292969 120.121094 C 70.113281 108.523438 61.277344 90.300781 57.6875 77.871094 C 55.203125 68.761719 54.648438 61.582031 54.648438 53.019531 C 54.925781 44.460938 56.308594 28.167969 59.066406 26.789062 C 60.171875 26.234375 62.933594 28.167969 62.933594 28.996094 C 63.210938 29.824219 61.277344 32.035156 60.449219 32.035156 C 59.34375 32.035156 57.410156 30.101562 57.410156 29.273438 C 57.410156 28.445312 58.792969 26.789062 59.621094 26.511719 C 60.449219 26.511719 62.105469 27.339844 62.933594 28.71875 C 64.589844 32.308594 60.171875 45.011719 60.171875 53.019531 C 60.171875 60.753906 60.449219 67.378906 62.933594 75.664062 C 66.246094 87.8125 75.085938 105.761719 81.710938 116.808594 C 86.957031 125.367188 92.203125 133.652344 98.003906 137.242188 C 102.699219 140.28125 106.5625 140.28125 112.363281 140.832031 C 121.75 141.660156 136.386719 141.109375 148.261719 139.453125 C 160.132812 137.519531 171.179688 134.757812 183.882812 130.0625 C 199.621094 124.539062 228.339844 106.316406 234.96875 106.867188 C 236.902344 106.867188 238.003906 107.695312 238.28125 108.800781 C 238.558594 109.628906 236.625 112.113281 236.625 112.113281 " clip-rule="nonzero"/></clipPath><clipPath id="1db95df7ac"><path d="M 0.433594 0.234375 L 184.792969 0.234375 L 184.792969 120.867188 L 0.433594 120.867188 Z M 0.433594 0.234375 " clip-rule="nonzero"/></clipPath><clipPath id="792e36a25f"><path d="M 182.625 86.113281 C 122.425781 112.898438 116.628906 114.554688 106.6875 116.488281 C 93.15625 118.972656 70.511719 121.183594 58.640625 120.355469 C 51.460938 119.800781 47.316406 119.527344 42.070312 116.488281 C 35.167969 112.347656 29.09375 103.234375 23.292969 94.121094 C 16.113281 82.523438 7.277344 64.300781 3.6875 51.871094 C 1.203125 42.761719 0.648438 35.582031 0.648438 27.019531 C 0.925781 18.460938 2.308594 2.167969 5.066406 0.789062 C 6.171875 0.234375 8.933594 2.167969 8.933594 2.996094 C 9.210938 3.824219 7.277344 6.035156 6.449219 6.035156 C 5.34375 6.035156 3.410156 4.101562 3.410156 3.273438 C 3.410156 2.445312 4.792969 0.789062 5.621094 0.511719 C 6.449219 0.511719 8.105469 1.339844 8.933594 2.71875 C 10.589844 6.308594 6.171875 19.011719 6.171875 27.019531 C 6.171875 34.753906 6.449219 41.378906 8.933594 49.664062 C 12.246094 61.8125 21.085938 79.761719 27.710938 90.808594 C 32.957031 99.367188 38.203125 107.652344 44.003906 111.242188 C 48.699219 114.28125 52.5625 114.28125 58.363281 114.832031 C 67.75 115.660156 82.386719 115.109375 94.261719 113.453125 C 106.132812 111.519531 117.179688 108.757812 129.882812 104.0625 C 145.621094 98.539062 174.339844 80.316406 180.96875 80.867188 C 182.902344 80.867188 184.003906 81.695312 184.28125 82.800781 C 184.558594 83.628906 182.625 86.113281 182.625 86.113281 " clip-rule="nonzero"/></clipPath><clipPath id="777a94cf81"><rect x="0" width="185" y="0" height="121"/></clipPath><clipPath id="0e0fb01758"><path d="M 11.320312 10.675781 L 85.398438 10.675781 L 85.398438 69.371094 L 11.320312 69.371094 Z M 11.320312 10.675781 " clip-rule="nonzero"/></clipPath><clipPath id="05ec289472"><path d="M 81.433594 42.25 C 39.460938 18.78125 39.738281 33.414062 35.042969 41.421875 C 29.523438 50.8125 16.265625 69.3125 13.230469 69.035156 C 12.125 68.761719 11.296875 66.273438 11.574219 65.445312 C 12.125 64.34375 14.609375 63.511719 15.4375 64.066406 C 16.265625 64.34375 17.09375 66.828125 16.542969 67.65625 C 16.265625 68.484375 14.335938 69.3125 13.503906 69.035156 C 12.675781 68.761719 11.574219 67.378906 11.574219 65.722656 C 11.847656 59.648438 31.730469 38.386719 36.703125 27.890625 C 39.738281 21.539062 37.804688 12.429688 42.222656 11.046875 C 49.402344 8.285156 80.332031 32.035156 84.195312 37.558594 C 85.300781 38.9375 85.300781 40.316406 85.023438 40.871094 C 84.472656 41.699219 81.433594 42.25 81.433594 42.25 " clip-rule="nonzero"/></clipPath><clipPath id="69babb7f78"><path d="M 0.320312 0.675781 L 74.398438 0.675781 L 74.398438 59.371094 L 0.320312 59.371094 Z M 0.320312 0.675781 " clip-rule="nonzero"/></clipPath><clipPath id="a9fe3b8ba9"><path d="M 70.433594 32.25 C 28.460938 8.78125 28.738281 23.414062 24.042969 31.421875 C 18.523438 40.8125 5.265625 59.3125 2.230469 59.035156 C 1.125 58.761719 0.296875 56.273438 0.574219 55.445312 C 1.125 54.34375 3.609375 53.511719 4.4375 54.066406 C 5.265625 54.34375 6.09375 56.828125 5.542969 57.65625 C 5.265625 58.484375 3.335938 59.3125 2.503906 59.035156 C 1.675781 58.761719 0.574219 57.378906 0.574219 55.722656 C 0.847656 49.648438 20.730469 28.386719 25.703125 17.890625 C 28.738281 11.539062 26.804688 2.429688 31.222656 1.046875 C 38.402344 -1.714844 69.332031 22.035156 73.195312 27.558594 C 74.300781 28.9375 74.300781 30.316406 74.023438 30.871094 C 73.472656 31.699219 70.433594 32.25 70.433594 32.25 " clip-rule="nonzero"/></clipPath><clipPath id="e1a20d1e47"><rect x="0" width="75" y="0" height="60"/></clipPath><clipPath id="d7602771ca"><rect x="0" width="250" y="0" height="158"/></clipPath></defs><g clip-path="url(#d3f6ee239a)"><g transform="matrix(1, 0, 0, 1, 0.000000000000000222, -0.000000000000012032)"><g clip-path="url(#d7602771ca)"><g clip-path="url(#e08bde5682)"><g clip-path="url(#bc8a9d896e)"><g transform="matrix(1, 0, 0, 1, 54, 26)"><g clip-path="url(#777a94cf81)"><g clip-path="url(#1db95df7ac)"><g clip-path="url(#792e36a25f)"><rect x="-145.182" width="432.864" fill="#a2abce" y="-83.876001" height="274.752003" fill-opacity="1"/></g></g></g></g></g></g><g clip-path="url(#0e0fb01758)"><g clip-path="url(#05ec289472)"><g transform="matrix(1, 0, 0, 1, 11, 10)"><g clip-path="url(#e1a20d1e47)"><g clip-path="url(#69babb7f78)"><g clip-path="url(#a9fe3b8ba9)"><rect x="-102.182" width="432.864" fill="#a2abce" y="-67.876001" height="274.752003" fill-opacity="1"/></g></g></g></g></g></g></g></g></g></svg>