<svg xmlns="http://www.w3.org/2000/svg" xmlns:xlink="http://www.w3.org/1999/xlink" width="382" zoomAndPan="magnify" viewBox="0 0 286.5 275.25" height="367" preserveAspectRatio="xMidYMid meet" version="1.0"><defs><clipPath id="2ccffb613d"><path d="M 0.140625 0 L 285.863281 0 L 285.863281 274.503906 L 0.140625 274.503906 Z M 0.140625 0 " clip-rule="nonzero"/></clipPath><clipPath id="d09fffea84"><path d="M 102.46875 128.886719 L 208.238281 128.886719 L 208.238281 196 L 102.46875 196 Z M 102.46875 128.886719 " clip-rule="nonzero"/></clipPath><clipPath id="af87f3af94"><path d="M 103.1875 192.96875 C 158.296875 158.328125 168.792969 148.882812 179.464844 142.234375 C 188.5625 136.8125 201.859375 129.113281 205.882812 128.9375 C 207.105469 128.9375 207.980469 129.636719 208.15625 130.164062 C 208.332031 130.6875 207.980469 131.914062 207.457031 132.085938 C 206.929688 132.4375 205.183594 132.085938 205.007812 131.5625 C 204.65625 131.039062 205.183594 129.464844 205.707031 129.113281 C 206.230469 128.761719 207.457031 129.113281 207.804688 129.464844 C 208.15625 129.988281 208.15625 131.039062 207.632812 132.085938 C 205.183594 135.761719 185.414062 142.757812 175.089844 149.234375 C 164.769531 155.707031 156.195312 163.929688 145.523438 171.101562 C 133.277344 179.324219 110.359375 194.71875 105.109375 195.769531 C 103.886719 196.121094 103.1875 195.945312 102.835938 195.417969 C 102.484375 195.070312 103.1875 192.96875 103.1875 192.96875 " clip-rule="nonzero"/></clipPath><clipPath id="604f0cb61f"><path d="M 0.46875 0.886719 L 106.238281 0.886719 L 106.238281 68 L 0.46875 68 Z M 0.46875 0.886719 " clip-rule="nonzero"/></clipPath><clipPath id="ad3f244aba"><path d="M 1.1875 64.96875 C 56.296875 30.328125 66.792969 20.882812 77.464844 14.234375 C 86.5625 8.8125 99.859375 1.113281 103.882812 0.9375 C 105.105469 0.9375 105.980469 1.636719 106.15625 2.164062 C 106.332031 2.6875 105.980469 3.914062 105.457031 4.085938 C 104.929688 4.4375 103.183594 4.085938 103.007812 3.5625 C 102.65625 3.039062 103.183594 1.464844 103.707031 1.113281 C 104.230469 0.761719 105.457031 1.113281 105.804688 1.464844 C 106.15625 1.988281 106.15625 3.039062 105.632812 4.085938 C 103.183594 7.761719 83.414062 14.757812 73.089844 21.234375 C 62.769531 27.707031 54.195312 35.929688 43.523438 43.101562 C 31.277344 51.324219 8.359375 66.71875 3.109375 67.769531 C 1.886719 68.121094 1.1875 67.945312 0.835938 67.417969 C 0.484375 67.070312 1.1875 64.96875 1.1875 64.96875 " clip-rule="nonzero"/></clipPath><clipPath id="c36242f4a0"><rect x="0" width="107" y="0" height="68"/></clipPath><clipPath id="be7c4b912c"><path d="M 58.328125 5.382812 L 278.980469 5.382812 L 278.980469 146.503906 L 58.328125 146.503906 Z M 58.328125 5.382812 " clip-rule="nonzero"/></clipPath><clipPath id="98c9a18866"><path d="M 58.75 75.054688 C 104.761719 45.136719 111.410156 32.714844 117.53125 26.417969 C 121.03125 22.742188 122.78125 20.992188 126.980469 18.195312 C 133.101562 14.347656 143.597656 8.746094 151.820312 6.996094 C 159.34375 5.421875 165.816406 4.375 174.039062 6.996094 C 187.160156 11.195312 204.308594 26.066406 219.351562 39.363281 C 237.023438 55.109375 263.265625 83.625 271.835938 96.921875 C 275.6875 102.871094 277.261719 106.195312 278.136719 111.09375 C 279.011719 116.34375 278.3125 123.164062 277.085938 127.890625 C 276.035156 131.5625 274.988281 134.535156 272.539062 137.335938 C 269.738281 140.484375 264.488281 143.632812 259.941406 145.035156 C 255.042969 146.609375 249.269531 146.257812 244.195312 146.082031 C 239.472656 145.734375 235.621094 145.382812 230.199219 143.808594 C 222.328125 141.535156 203.433594 134.886719 202.382812 131.738281 C 202.03125 130.6875 203.257812 128.9375 203.78125 128.9375 C 204.308594 128.9375 205.53125 130.863281 205.355469 131.386719 C 205.183594 131.738281 202.382812 131.738281 202.207031 131.386719 C 202.03125 131.039062 203.082031 129.289062 204.132812 128.9375 C 207.632812 128.238281 219.878906 136.984375 226.699219 139.085938 C 232.125 140.835938 236.496094 141.882812 241.746094 142.234375 C 247.519531 142.757812 254.867188 143.285156 259.941406 141.359375 C 264.664062 139.785156 269.214844 136.285156 271.664062 132.789062 C 273.585938 129.988281 273.9375 126.488281 274.460938 122.988281 C 274.988281 119.140625 275.511719 114.941406 274.636719 110.742188 C 273.414062 105.84375 271.3125 101.820312 266.9375 95.523438 C 257.839844 82.75 233.875 56.859375 217.078125 41.988281 C 202.558594 29.214844 185.585938 14.347656 173.164062 10.320312 C 165.46875 7.871094 159.695312 8.921875 152.695312 10.320312 C 145 12.070312 134.675781 17.496094 128.902344 21.167969 C 125.054688 23.617188 123.65625 25.191406 120.332031 28.515625 C 114.207031 34.640625 106.507812 48.113281 97.414062 55.984375 C 87.613281 64.382812 69.421875 74.355469 63.296875 77.152344 C 61.199219 78.027344 59.621094 78.902344 58.921875 78.378906 C 58.222656 78.027344 58.75 75.054688 58.75 75.054688 " clip-rule="nonzero"/></clipPath><clipPath id="e32ef3dc26"><path d="M 0.328125 0.382812 L 220.980469 0.382812 L 220.980469 141.503906 L 0.328125 141.503906 Z M 0.328125 0.382812 " clip-rule="nonzero"/></clipPath><clipPath id="2fd116ed72"><path d="M 0.75 70.054688 C 46.761719 40.136719 53.410156 27.714844 59.53125 21.417969 C 63.03125 17.742188 64.78125 15.992188 68.980469 13.195312 C 75.101562 9.347656 85.597656 3.746094 93.820312 1.996094 C 101.34375 0.421875 107.816406 -0.625 116.039062 1.996094 C 129.160156 6.195312 146.308594 21.066406 161.351562 34.363281 C 179.023438 50.109375 205.265625 78.625 213.835938 91.921875 C 217.6875 97.871094 219.261719 101.195312 220.136719 106.09375 C 221.011719 111.34375 220.3125 118.164062 219.085938 122.890625 C 218.035156 126.5625 216.988281 129.535156 214.539062 132.335938 C 211.738281 135.484375 206.488281 138.632812 201.941406 140.035156 C 197.042969 141.609375 191.269531 141.257812 186.195312 141.082031 C 181.472656 140.734375 177.621094 140.382812 172.199219 138.808594 C 164.328125 136.535156 145.433594 129.886719 144.382812 126.738281 C 144.03125 125.6875 145.257812 123.9375 145.78125 123.9375 C 146.308594 123.9375 147.53125 125.863281 147.355469 126.386719 C 147.183594 126.738281 144.382812 126.738281 144.207031 126.386719 C 144.03125 126.039062 145.082031 124.289062 146.132812 123.9375 C 149.632812 123.238281 161.878906 131.984375 168.699219 134.085938 C 174.125 135.835938 178.496094 136.882812 183.746094 137.234375 C 189.519531 137.757812 196.867188 138.285156 201.941406 136.359375 C 206.664062 134.785156 211.214844 131.285156 213.664062 127.789062 C 215.585938 124.988281 215.9375 121.488281 216.460938 117.988281 C 216.988281 114.140625 217.511719 109.941406 216.636719 105.742188 C 215.414062 100.84375 213.3125 96.820312 208.9375 90.523438 C 199.839844 77.75 175.875 51.859375 159.078125 36.988281 C 144.558594 24.214844 127.585938 9.347656 115.164062 5.320312 C 107.46875 2.871094 101.695312 3.921875 94.695312 5.320312 C 87 7.070312 76.675781 12.496094 70.902344 16.167969 C 67.054688 18.617188 65.65625 20.191406 62.332031 23.515625 C 56.207031 29.640625 48.507812 43.113281 39.414062 50.984375 C 29.613281 59.382812 11.421875 69.355469 5.296875 72.152344 C 3.199219 73.027344 1.621094 73.902344 0.921875 73.378906 C 0.222656 73.027344 0.75 70.054688 0.75 70.054688 " clip-rule="nonzero"/></clipPath><clipPath id="ad656c6324"><rect x="0" width="221" y="0" height="142"/></clipPath><clipPath id="0ddeb0423a"><path d="M 6.058594 74 L 109.828125 74 L 109.828125 266.953125 L 6.058594 266.953125 Z M 6.058594 74 " clip-rule="nonzero"/></clipPath><clipPath id="6b3a4a9de5"><path d="M 61.199219 78.550781 C 34.253906 83.800781 19.210938 97.273438 14.3125 103.921875 C 11.863281 107.246094 11.511719 108.820312 10.636719 113.019531 C 8.886719 121.589844 9.761719 142.058594 10.636719 153.257812 C 11.160156 161.304688 12.386719 167.078125 13.960938 174.074219 C 15.710938 181.421875 17.808594 188.597656 20.609375 196.292969 C 23.582031 205.042969 27.78125 214.839844 31.804688 223.761719 C 35.828125 232.335938 40.726562 242.65625 44.753906 248.605469 C 47.203125 252.277344 49.476562 254.902344 51.925781 257 C 54.023438 258.578125 55.597656 259.277344 58.222656 260.324219 C 61.546875 261.550781 66.796875 263.476562 70.820312 263.300781 C 74.667969 263.125 78.519531 262.425781 82.015625 259.453125 C 87.964844 254.203125 94.261719 238.457031 97.761719 228.136719 C 100.738281 218.863281 100.386719 206.617188 102.484375 200.492188 C 103.710938 196.820312 105.109375 193.320312 106.683594 192.621094 C 107.558594 192.09375 109.308594 192.621094 109.484375 193.144531 C 109.832031 193.496094 108.433594 195.59375 108.085938 195.59375 C 107.558594 195.59375 106.335938 193.144531 106.507812 192.796875 C 106.859375 192.269531 109.132812 192.269531 109.484375 192.96875 C 110.183594 194.195312 106.335938 198.917969 105.109375 203.117188 C 103.1875 209.589844 103.710938 219.738281 101.261719 227.960938 C 98.636719 236.707031 92.863281 247.730469 89.539062 254.027344 C 87.441406 257.703125 86.742188 260.152344 83.941406 262.25 C 80.792969 264.699219 75.195312 266.625 70.644531 266.800781 C 66.097656 266.972656 60.496094 265.050781 56.472656 263.300781 C 53.148438 261.902344 50.875 261.027344 48.078125 258.226562 C 43.003906 253.328125 37.230469 242.65625 32.332031 233.382812 C 26.730469 222.710938 20.960938 207.839844 17.109375 197.167969 C 14.136719 188.945312 12.210938 182.125 10.636719 174.773438 C 8.886719 167.601562 7.664062 161.652344 7.136719 153.257812 C 6.261719 141.535156 5.214844 119.316406 7.3125 110.570312 C 8.363281 106.371094 8.886719 105.144531 11.6875 101.820312 C 16.933594 94.996094 32.679688 80.828125 42.304688 76.804688 C 48.949219 74.179688 58.75 73.828125 61.371094 75.054688 C 62.421875 75.402344 62.945312 76.277344 62.773438 76.804688 C 62.773438 77.503906 61.199219 78.550781 61.199219 78.550781 " clip-rule="nonzero"/></clipPath><clipPath id="26631262c2"><path d="M 0.0585938 0 L 103.828125 0 L 103.828125 192.953125 L 0.0585938 192.953125 Z M 0.0585938 0 " clip-rule="nonzero"/></clipPath><clipPath id="629166d0cc"><path d="M 55.199219 4.550781 C 28.253906 9.800781 13.210938 23.273438 8.3125 29.921875 C 5.863281 33.246094 5.511719 34.820312 4.636719 39.019531 C 2.886719 47.589844 3.761719 68.058594 4.636719 79.257812 C 5.160156 87.304688 6.386719 93.078125 7.960938 100.074219 C 9.710938 107.421875 11.808594 114.597656 14.609375 122.292969 C 17.582031 131.042969 21.78125 140.839844 25.804688 149.761719 C 29.828125 158.335938 34.726562 168.65625 38.753906 174.605469 C 41.203125 178.277344 43.476562 180.902344 45.925781 183 C 48.023438 184.578125 49.597656 185.277344 52.222656 186.324219 C 55.546875 187.550781 60.796875 189.476562 64.820312 189.300781 C 68.667969 189.125 72.519531 188.425781 76.015625 185.453125 C 81.964844 180.203125 88.261719 164.457031 91.761719 154.136719 C 94.738281 144.863281 94.386719 132.617188 96.484375 126.492188 C 97.710938 122.820312 99.109375 119.320312 100.683594 118.621094 C 101.558594 118.09375 103.308594 118.621094 103.484375 119.144531 C 103.832031 119.496094 102.433594 121.59375 102.085938 121.59375 C 101.558594 121.59375 100.335938 119.144531 100.507812 118.796875 C 100.859375 118.269531 103.132812 118.269531 103.484375 118.96875 C 104.183594 120.195312 100.335938 124.917969 99.109375 129.117188 C 97.1875 135.589844 97.710938 145.738281 95.261719 153.960938 C 92.636719 162.707031 86.863281 173.730469 83.539062 180.027344 C 81.441406 183.703125 80.742188 186.152344 77.941406 188.25 C 74.792969 190.699219 69.195312 192.625 64.644531 192.800781 C 60.097656 192.972656 54.496094 191.050781 50.472656 189.300781 C 47.148438 187.902344 44.875 187.027344 42.078125 184.226562 C 37.003906 179.328125 31.230469 168.65625 26.332031 159.382812 C 20.730469 148.710938 14.960938 133.839844 11.109375 123.167969 C 8.136719 114.945312 6.210938 108.125 4.636719 100.773438 C 2.886719 93.601562 1.664062 87.652344 1.136719 79.257812 C 0.261719 67.535156 -0.785156 45.316406 1.3125 36.570312 C 2.363281 32.371094 2.886719 31.144531 5.6875 27.820312 C 10.933594 20.996094 26.679688 6.828125 36.304688 2.804688 C 42.949219 0.179688 52.75 -0.171875 55.371094 1.054688 C 56.421875 1.402344 56.945312 2.277344 56.773438 2.804688 C 56.773438 3.503906 55.199219 4.550781 55.199219 4.550781 " clip-rule="nonzero"/></clipPath><clipPath id="5f71aedb25"><rect x="0" width="104" y="0" height="193"/></clipPath><clipPath id="957c33f781"><path d="M 81.304688 119.828125 L 122.375 119.828125 L 122.375 159.042969 L 81.304688 159.042969 Z M 81.304688 119.828125 " clip-rule="nonzero"/></clipPath><clipPath id="e661716b2a"><path d="M 90.9375 140.308594 C 86.566406 135.9375 84.292969 131.914062 84.816406 129.464844 C 85.339844 127.363281 87.964844 125.613281 90.238281 124.214844 C 92.863281 122.289062 97.761719 119.316406 100.386719 120.015625 C 102.660156 120.714844 102.835938 125.613281 105.285156 126.664062 C 107.910156 127.886719 113.332031 124.390625 116.132812 125.613281 C 118.582031 126.664062 120.855469 130.511719 121.730469 132.4375 C 122.082031 133.488281 122.429688 134.363281 121.90625 135.410156 C 121.378906 137.160156 116.832031 138.386719 116.308594 140.660156 C 115.605469 143.460938 121.03125 149.582031 120.503906 151.683594 C 120.332031 152.730469 119.804688 153.082031 118.929688 153.78125 C 116.832031 155.179688 109.832031 158.328125 107.210938 158.855469 C 105.984375 159.03125 105.285156 159.203125 104.234375 158.679688 C 102.660156 157.980469 101.085938 153.429688 99.335938 153.257812 C 97.585938 153.257812 95.835938 156.753906 94.089844 157.457031 C 92.6875 157.980469 91.113281 158.679688 89.714844 157.980469 C 87.089844 156.753906 80.792969 149.058594 81.492188 145.382812 C 82.015625 141.535156 91.988281 134.535156 93.914062 134.886719 C 94.613281 135.238281 95.3125 137.511719 94.964844 137.859375 C 94.613281 138.386719 92.863281 138.386719 92.339844 137.859375 C 91.988281 137.511719 92.164062 135.761719 92.6875 135.410156 C 93.039062 135.0625 94.789062 135.238281 95.136719 135.761719 C 95.488281 136.109375 95.488281 136.984375 95.136719 137.859375 C 94.089844 139.785156 85.164062 142.234375 84.640625 145.207031 C 84.292969 148.007812 89.191406 154.304688 91.8125 154.65625 C 93.914062 155.007812 96.539062 150.105469 98.636719 149.933594 C 100.210938 149.757812 102.136719 150.980469 103.359375 151.855469 C 104.410156 152.90625 104.410156 155.179688 105.636719 155.707031 C 107.910156 156.40625 116.132812 153.957031 117.183594 151.332031 C 118.230469 148.882812 111.933594 143.808594 112.28125 140.835938 C 112.632812 138.210938 118.230469 136.109375 118.230469 134.011719 C 118.40625 131.914062 116.132812 128.9375 114.03125 128.238281 C 111.757812 127.363281 107.035156 131.5625 104.585938 130.6875 C 101.960938 129.8125 101.085938 123.863281 98.460938 123.515625 C 95.664062 122.988281 88.839844 126.839844 88.140625 129.464844 C 87.613281 131.914062 93.914062 136.636719 93.5625 138.386719 C 93.386719 139.433594 90.9375 140.308594 90.9375 140.308594 " clip-rule="nonzero"/></clipPath><clipPath id="4942792ac3"><path d="M 0.304688 0.828125 L 41.375 0.828125 L 41.375 40.042969 L 0.304688 40.042969 Z M 0.304688 0.828125 " clip-rule="nonzero"/></clipPath><clipPath id="bdd3929a11"><path d="M 9.9375 21.308594 C 5.566406 16.9375 3.292969 12.914062 3.816406 10.464844 C 4.339844 8.363281 6.964844 6.613281 9.238281 5.214844 C 11.863281 3.289062 16.761719 0.316406 19.386719 1.015625 C 21.660156 1.714844 21.835938 6.613281 24.285156 7.664062 C 26.910156 8.886719 32.332031 5.390625 35.132812 6.613281 C 37.582031 7.664062 39.855469 11.511719 40.730469 13.4375 C 41.082031 14.488281 41.429688 15.363281 40.90625 16.410156 C 40.378906 18.160156 35.832031 19.386719 35.308594 21.660156 C 34.605469 24.460938 40.03125 30.582031 39.503906 32.683594 C 39.332031 33.730469 38.804688 34.082031 37.929688 34.78125 C 35.832031 36.179688 28.832031 39.328125 26.210938 39.855469 C 24.984375 40.03125 24.285156 40.203125 23.234375 39.679688 C 21.660156 38.980469 20.085938 34.429688 18.335938 34.257812 C 16.585938 34.257812 14.835938 37.753906 13.089844 38.457031 C 11.6875 38.980469 10.113281 39.679688 8.714844 38.980469 C 6.089844 37.753906 -0.207031 30.058594 0.492188 26.382812 C 1.015625 22.535156 10.988281 15.535156 12.914062 15.886719 C 13.613281 16.238281 14.3125 18.511719 13.964844 18.859375 C 13.613281 19.386719 11.863281 19.386719 11.339844 18.859375 C 10.988281 18.511719 11.164062 16.761719 11.6875 16.410156 C 12.039062 16.0625 13.789062 16.238281 14.136719 16.761719 C 14.488281 17.109375 14.488281 17.984375 14.136719 18.859375 C 13.089844 20.785156 4.164062 23.234375 3.640625 26.207031 C 3.292969 29.007812 8.191406 35.304688 10.8125 35.65625 C 12.914062 36.007812 15.539062 31.105469 17.636719 30.933594 C 19.210938 30.757812 21.136719 31.980469 22.359375 32.855469 C 23.410156 33.90625 23.410156 36.179688 24.636719 36.707031 C 26.910156 37.40625 35.132812 34.957031 36.183594 32.332031 C 37.230469 29.882812 30.933594 24.808594 31.28125 21.835938 C 31.632812 19.210938 37.230469 17.109375 37.230469 15.011719 C 37.40625 12.914062 35.132812 9.9375 33.03125 9.238281 C 30.757812 8.363281 26.035156 12.5625 23.585938 11.6875 C 20.960938 10.8125 20.085938 4.863281 17.460938 4.515625 C 14.664062 3.988281 7.839844 7.839844 7.140625 10.464844 C 6.613281 12.914062 12.914062 17.636719 12.5625 19.386719 C 12.386719 20.433594 9.9375 21.308594 9.9375 21.308594 " clip-rule="nonzero"/></clipPath><clipPath id="b3bce3ac48"><rect x="0" width="42" y="0" height="41"/></clipPath><clipPath id="ea7f0b2230"><path d="M 149.808594 30.863281 L 159.261719 30.863281 L 159.261719 42.40625 L 149.808594 42.40625 Z M 149.808594 30.863281 " clip-rule="nonzero"/></clipPath><clipPath id="1e868ed956"><path d="M 156.894531 34.117188 C 153.746094 36.390625 154.621094 38.839844 154.796875 38.839844 C 155.144531 38.839844 156.019531 36.566406 155.671875 36.214844 C 155.144531 35.691406 151.820312 36.914062 151.648438 36.738281 C 151.648438 36.566406 154.269531 34.988281 154.621094 35.339844 C 154.972656 35.515625 154.269531 38.140625 153.746094 38.3125 C 153.222656 38.488281 151.648438 36.738281 151.648438 36.214844 C 151.820312 35.691406 153.921875 34.816406 154.445312 35.164062 C 154.796875 35.339844 154.445312 37.964844 153.921875 38.3125 C 153.570312 38.488281 151.820312 36.390625 151.648438 36.390625 C 151.648438 36.566406 152.171875 37.964844 152.347656 37.789062 C 152.523438 37.789062 151.996094 35.691406 152.695312 34.988281 C 153.570312 34.117188 158.296875 33.242188 158.996094 34.289062 C 159.871094 35.339844 157.769531 40.9375 156.195312 41.988281 C 155.144531 42.6875 152.871094 42.339844 151.820312 41.636719 C 150.773438 40.761719 149.722656 39.015625 149.898438 37.4375 C 150.074219 35.515625 153.046875 32.015625 154.621094 31.316406 C 155.671875 30.792969 157.070312 30.792969 157.59375 31.316406 C 157.945312 31.839844 156.894531 34.117188 156.894531 34.117188 " clip-rule="nonzero"/></clipPath><clipPath id="cf72c70fec"><path d="M 0.808594 0.863281 L 10.261719 0.863281 L 10.261719 12.40625 L 0.808594 12.40625 Z M 0.808594 0.863281 " clip-rule="nonzero"/></clipPath><clipPath id="84c4279375"><path d="M 7.894531 4.117188 C 4.746094 6.390625 5.621094 8.839844 5.796875 8.839844 C 6.144531 8.839844 7.019531 6.566406 6.671875 6.214844 C 6.144531 5.691406 2.820312 6.914062 2.648438 6.738281 C 2.648438 6.566406 5.269531 4.988281 5.621094 5.339844 C 5.972656 5.515625 5.269531 8.140625 4.746094 8.3125 C 4.222656 8.488281 2.648438 6.738281 2.648438 6.214844 C 2.820312 5.691406 4.921875 4.816406 5.445312 5.164062 C 5.796875 5.339844 5.445312 7.964844 4.921875 8.3125 C 4.570312 8.488281 2.820312 6.390625 2.648438 6.390625 C 2.648438 6.566406 3.171875 7.964844 3.347656 7.789062 C 3.523438 7.789062 2.996094 5.691406 3.695312 4.988281 C 4.570312 4.117188 9.296875 3.242188 9.996094 4.289062 C 10.871094 5.339844 8.769531 10.9375 7.195312 11.988281 C 6.144531 12.6875 3.871094 12.339844 2.820312 11.636719 C 1.773438 10.761719 0.722656 9.015625 0.898438 7.4375 C 1.074219 5.515625 4.046875 2.015625 5.621094 1.316406 C 6.671875 0.792969 8.070312 0.792969 8.59375 1.316406 C 8.945312 1.839844 7.894531 4.117188 7.894531 4.117188 " clip-rule="nonzero"/></clipPath><clipPath id="40d37538a8"><rect x="0" width="11" y="0" height="13"/></clipPath><clipPath id="ce2ff9a4b1"><path d="M 170.511719 34.453125 L 181.132812 34.453125 L 181.132812 45.644531 L 170.511719 45.644531 Z M 170.511719 34.453125 " clip-rule="nonzero"/></clipPath><clipPath id="fd04edc2a7"><path d="M 179.640625 37.964844 C 174.214844 40.589844 174.039062 41.636719 174.214844 41.8125 C 174.390625 41.988281 176.316406 39.886719 177.015625 40.238281 C 177.890625 40.589844 178.589844 44.4375 178.589844 44.4375 C 178.589844 44.4375 177.191406 42.339844 177.363281 41.8125 C 177.714844 41.464844 179.8125 41.113281 180.164062 41.636719 C 180.515625 41.988281 179.988281 44.261719 179.640625 44.4375 C 179.113281 44.613281 177.191406 42.6875 177.363281 42.164062 C 177.363281 41.8125 180.164062 41.464844 180.515625 41.8125 C 180.6875 42.339844 179.8125 44.261719 179.289062 44.4375 C 178.765625 44.613281 177.539062 44.085938 177.363281 43.5625 C 177.191406 42.863281 178.414062 41.988281 178.414062 41.113281 C 178.414062 40.0625 176.140625 37.613281 176.488281 37.265625 C 176.839844 36.914062 180.6875 38.140625 181.039062 39.363281 C 181.386719 40.589844 178.589844 44.261719 177.015625 45.136719 C 175.613281 45.835938 173.515625 45.660156 172.292969 45.136719 C 171.589844 44.789062 170.890625 43.914062 170.714844 43.039062 C 170.367188 41.988281 170.542969 40.238281 171.417969 39.015625 C 172.640625 37.089844 177.539062 34.289062 179.289062 34.464844 C 179.988281 34.640625 180.863281 35.515625 181.039062 36.039062 C 181.039062 36.566406 179.640625 37.964844 179.640625 37.964844 " clip-rule="nonzero"/></clipPath><clipPath id="4ae729d152"><path d="M 0.511719 0.453125 L 11.132812 0.453125 L 11.132812 11.644531 L 0.511719 11.644531 Z M 0.511719 0.453125 " clip-rule="nonzero"/></clipPath><clipPath id="365c45c591"><path d="M 9.640625 3.964844 C 4.214844 6.589844 4.039062 7.636719 4.214844 7.8125 C 4.390625 7.988281 6.316406 5.886719 7.015625 6.238281 C 7.890625 6.589844 8.589844 10.4375 8.589844 10.4375 C 8.589844 10.4375 7.191406 8.339844 7.363281 7.8125 C 7.714844 7.464844 9.8125 7.113281 10.164062 7.636719 C 10.515625 7.988281 9.988281 10.261719 9.640625 10.4375 C 9.113281 10.613281 7.191406 8.6875 7.363281 8.164062 C 7.363281 7.8125 10.164062 7.464844 10.515625 7.8125 C 10.6875 8.339844 9.8125 10.261719 9.289062 10.4375 C 8.765625 10.613281 7.539062 10.085938 7.363281 9.5625 C 7.191406 8.863281 8.414062 7.988281 8.414062 7.113281 C 8.414062 6.0625 6.140625 3.613281 6.488281 3.265625 C 6.839844 2.914062 10.6875 4.140625 11.039062 5.363281 C 11.386719 6.589844 8.589844 10.261719 7.015625 11.136719 C 5.613281 11.835938 3.515625 11.660156 2.292969 11.136719 C 1.589844 10.789062 0.890625 9.914062 0.714844 9.039062 C 0.367188 7.988281 0.542969 6.238281 1.417969 5.015625 C 2.640625 3.089844 7.539062 0.289062 9.289062 0.464844 C 9.988281 0.640625 10.863281 1.515625 11.039062 2.039062 C 11.039062 2.566406 9.640625 3.964844 9.640625 3.964844 " clip-rule="nonzero"/></clipPath><clipPath id="3e2513ccd1"><rect x="0" width="12" y="0" height="12"/></clipPath><clipPath id="09abc603cb"><path d="M 146.160156 52.597656 L 159.457031 52.597656 L 159.457031 63.140625 L 146.160156 63.140625 Z M 146.160156 52.597656 " clip-rule="nonzero"/></clipPath><clipPath id="699d8b8c03"><path d="M 154.621094 56.335938 C 149.546875 59.308594 154.796875 59.65625 155.496094 58.785156 C 156.019531 58.433594 156.019531 57.382812 155.671875 56.859375 C 155.496094 56.507812 154.445312 55.808594 153.921875 56.160156 C 153.222656 56.335938 151.648438 60.007812 151.996094 60.183594 C 152.347656 60.53125 154.097656 58.785156 154.621094 58.957031 C 154.972656 59.308594 154.972656 61.757812 154.621094 62.105469 C 154.097656 62.28125 151.996094 61.234375 151.996094 60.707031 C 151.996094 60.183594 154.269531 58.785156 154.621094 58.957031 C 155.144531 59.308594 154.621094 62.105469 154.269531 62.105469 C 153.746094 62.28125 151.996094 60.359375 152.171875 59.832031 C 152.171875 59.308594 153.570312 58.609375 154.269531 58.785156 C 154.796875 58.957031 155.144531 60.882812 155.496094 60.707031 C 156.019531 60.707031 156.71875 56.335938 156.71875 56.335938 C 156.894531 56.335938 156.546875 59.832031 155.84375 60.53125 C 155.144531 61.058594 153.921875 61.234375 153.222656 60.707031 C 151.996094 60.183594 150.074219 56.507812 150.421875 55.109375 C 150.773438 53.882812 152.871094 52.660156 154.269531 52.660156 C 155.671875 52.484375 157.945312 53.359375 158.644531 54.410156 C 159.519531 55.460938 159.695312 57.910156 158.996094 59.308594 C 158.296875 60.882812 155.84375 62.457031 154.097656 62.808594 C 152.523438 63.332031 150.597656 63.15625 149.371094 62.457031 C 147.972656 61.757812 146.222656 60.183594 146.222656 58.957031 C 146.046875 57.734375 147.273438 56.160156 148.324219 55.109375 C 149.546875 54.058594 151.296875 53.183594 152.695312 53.011719 C 153.921875 53.011719 155.671875 53.183594 155.84375 53.710938 C 156.195312 54.410156 154.621094 56.335938 154.621094 56.335938 " clip-rule="nonzero"/></clipPath><clipPath id="4480b25276"><path d="M 0.160156 0.597656 L 13.457031 0.597656 L 13.457031 11.140625 L 0.160156 11.140625 Z M 0.160156 0.597656 " clip-rule="nonzero"/></clipPath><clipPath id="660474bc1d"><path d="M 8.621094 4.335938 C 3.546875 7.308594 8.796875 7.65625 9.496094 6.785156 C 10.019531 6.433594 10.019531 5.382812 9.671875 4.859375 C 9.496094 4.507812 8.445312 3.808594 7.921875 4.160156 C 7.222656 4.335938 5.648438 8.007812 5.996094 8.183594 C 6.347656 8.53125 8.097656 6.785156 8.621094 6.957031 C 8.972656 7.308594 8.972656 9.757812 8.621094 10.105469 C 8.097656 10.28125 5.996094 9.234375 5.996094 8.707031 C 5.996094 8.183594 8.269531 6.785156 8.621094 6.957031 C 9.144531 7.308594 8.621094 10.105469 8.269531 10.105469 C 7.746094 10.28125 5.996094 8.359375 6.171875 7.832031 C 6.171875 7.308594 7.570312 6.609375 8.269531 6.785156 C 8.796875 6.957031 9.144531 8.882812 9.496094 8.707031 C 10.019531 8.707031 10.71875 4.335938 10.71875 4.335938 C 10.894531 4.335938 10.546875 7.832031 9.84375 8.53125 C 9.144531 9.058594 7.921875 9.234375 7.222656 8.707031 C 5.996094 8.183594 4.074219 4.507812 4.421875 3.109375 C 4.773438 1.882812 6.871094 0.660156 8.269531 0.660156 C 9.671875 0.484375 11.945312 1.359375 12.644531 2.410156 C 13.519531 3.460938 13.695312 5.910156 12.996094 7.308594 C 12.296875 8.882812 9.84375 10.457031 8.097656 10.808594 C 6.523438 11.332031 4.597656 11.15625 3.371094 10.457031 C 1.972656 9.757812 0.222656 8.183594 0.222656 6.957031 C 0.046875 5.734375 1.273438 4.160156 2.324219 3.109375 C 3.546875 2.058594 5.296875 1.183594 6.695312 1.011719 C 7.921875 1.011719 9.671875 1.183594 9.84375 1.710938 C 10.195312 2.410156 8.621094 4.335938 8.621094 4.335938 " clip-rule="nonzero"/></clipPath><clipPath id="6f07c2a567"><rect x="0" width="14" y="0" height="12"/></clipPath><clipPath id="113123b8d9"><path d="M 167.554688 55 L 179.296875 55 L 179.296875 65.96875 L 167.554688 65.96875 Z M 167.554688 55 " clip-rule="nonzero"/></clipPath><clipPath id="94b42d99ba"><path d="M 167.566406 61.757812 C 168.09375 58.257812 168.792969 57.734375 169.492188 57.382812 C 170.191406 57.035156 171.417969 57.207031 171.765625 57.035156 C 171.941406 56.859375 171.941406 56.859375 172.117188 56.683594 C 172.464844 56.335938 174.214844 55.285156 175.089844 55.109375 C 175.789062 54.933594 176.316406 55.109375 176.839844 55.285156 C 177.539062 55.808594 178.238281 56.683594 178.589844 57.558594 C 179.113281 58.433594 179.289062 59.65625 179.289062 60.53125 C 179.289062 61.582031 179.113281 62.632812 178.589844 63.507812 C 178.238281 64.382812 177.363281 65.257812 176.664062 65.78125 C 175.964844 65.957031 175.265625 65.957031 174.390625 65.78125 C 173.515625 65.78125 172.464844 65.082031 171.589844 64.730469 C 170.890625 64.558594 170.367188 64.382812 169.667969 63.855469 C 168.96875 63.332031 167.566406 61.757812 167.566406 61.757812 " clip-rule="nonzero"/></clipPath><clipPath id="8f166aa576"><path d="M 0.554688 0 L 12.296875 0 L 12.296875 10.96875 L 0.554688 10.96875 Z M 0.554688 0 " clip-rule="nonzero"/></clipPath><clipPath id="9d56e6942e"><path d="M 0.566406 6.757812 C 1.09375 3.257812 1.792969 2.734375 2.492188 2.382812 C 3.191406 2.035156 4.417969 2.207031 4.765625 2.035156 C 4.941406 1.859375 4.941406 1.859375 5.117188 1.683594 C 5.464844 1.335938 7.214844 0.285156 8.089844 0.109375 C 8.789062 -0.0664062 9.316406 0.109375 9.839844 0.285156 C 10.539062 0.808594 11.238281 1.683594 11.589844 2.558594 C 12.113281 3.433594 12.289062 4.65625 12.289062 5.53125 C 12.289062 6.582031 12.113281 7.632812 11.589844 8.507812 C 11.238281 9.382812 10.363281 10.257812 9.664062 10.78125 C 8.964844 10.957031 8.265625 10.957031 7.390625 10.78125 C 6.515625 10.78125 5.464844 10.082031 4.589844 9.730469 C 3.890625 9.558594 3.367188 9.382812 2.667969 8.855469 C 1.96875 8.332031 0.566406 6.757812 0.566406 6.757812 " clip-rule="nonzero"/></clipPath><clipPath id="9f862c129f"><rect x="0" width="13" y="0" height="11"/></clipPath><clipPath id="8fc3279bdb"><path d="M 34.246094 112.164062 L 59.371094 112.164062 L 59.371094 137.289062 L 34.246094 137.289062 Z M 34.246094 112.164062 " clip-rule="nonzero"/></clipPath><clipPath id="ec8e66bd7d"><path d="M 51.925781 116.691406 C 40.902344 117.742188 37.929688 121.066406 37.753906 123.515625 C 37.40625 125.789062 39.503906 128.761719 41.253906 130.511719 C 43.003906 132.261719 46.328125 133.660156 48.601562 133.488281 C 50.875 133.3125 54.023438 131.210938 55.25 129.113281 C 56.472656 126.839844 56.472656 122.464844 55.949219 120.367188 C 55.425781 118.964844 54.550781 118.089844 53.324219 117.390625 C 51.75 116.34375 47.902344 116.867188 47.203125 115.992188 C 46.675781 115.292969 46.851562 114.242188 47.375 113.71875 C 47.726562 113.367188 49.476562 113.191406 49.824219 113.71875 C 50.175781 114.066406 49.300781 116.691406 48.777344 116.691406 C 48.425781 116.691406 46.851562 114.417969 47.203125 113.894531 C 47.726562 113.191406 53.148438 113.542969 55.074219 114.242188 C 56.472656 114.941406 57.699219 115.816406 58.398438 117.566406 C 59.621094 120.367188 59.621094 128.761719 58.046875 131.738281 C 57.171875 133.660156 55.25 134.535156 53.5 135.410156 C 51.398438 136.460938 48.601562 137.511719 46.5 137.160156 C 44.226562 136.984375 41.953125 135.585938 40.027344 134.1875 C 38.277344 132.789062 36.179688 131.039062 35.304688 128.761719 C 34.429688 126.488281 33.90625 122.988281 34.78125 120.539062 C 36.003906 117.566406 40.027344 113.894531 43.175781 112.84375 C 45.976562 111.792969 51.050781 112.316406 52.625 113.367188 C 53.324219 113.71875 53.851562 114.765625 53.675781 115.292969 C 53.675781 115.816406 51.925781 116.691406 51.925781 116.691406 " clip-rule="nonzero"/></clipPath><clipPath id="93e9f10de9"><path d="M 0.246094 0.164062 L 25.371094 0.164062 L 25.371094 25.289062 L 0.246094 25.289062 Z M 0.246094 0.164062 " clip-rule="nonzero"/></clipPath><clipPath id="82592a60f6"><path d="M 17.925781 4.691406 C 6.902344 5.742188 3.929688 9.066406 3.753906 11.515625 C 3.40625 13.789062 5.503906 16.761719 7.253906 18.511719 C 9.003906 20.261719 12.328125 21.660156 14.601562 21.488281 C 16.875 21.3125 20.023438 19.210938 21.25 17.113281 C 22.472656 14.839844 22.472656 10.464844 21.949219 8.367188 C 21.425781 6.964844 20.550781 6.089844 19.324219 5.390625 C 17.75 4.34375 13.902344 4.867188 13.203125 3.992188 C 12.675781 3.292969 12.851562 2.242188 13.375 1.71875 C 13.726562 1.367188 15.476562 1.191406 15.824219 1.71875 C 16.175781 2.066406 15.300781 4.691406 14.777344 4.691406 C 14.425781 4.691406 12.851562 2.417969 13.203125 1.894531 C 13.726562 1.191406 19.148438 1.542969 21.074219 2.242188 C 22.472656 2.941406 23.699219 3.816406 24.398438 5.566406 C 25.621094 8.367188 25.621094 16.761719 24.046875 19.738281 C 23.171875 21.660156 21.25 22.535156 19.5 23.410156 C 17.398438 24.460938 14.601562 25.511719 12.5 25.160156 C 10.226562 24.984375 7.953125 23.585938 6.027344 22.1875 C 4.277344 20.789062 2.179688 19.039062 1.304688 16.761719 C 0.429688 14.488281 -0.09375 10.988281 0.78125 8.539062 C 2.003906 5.566406 6.027344 1.894531 9.175781 0.84375 C 11.976562 -0.207031 17.050781 0.316406 18.625 1.367188 C 19.324219 1.71875 19.851562 2.765625 19.675781 3.292969 C 19.675781 3.816406 17.925781 4.691406 17.925781 4.691406 " clip-rule="nonzero"/></clipPath><clipPath id="0548cc07b2"><rect x="0" width="26" y="0" height="26"/></clipPath><clipPath id="3dff084ceb"><path d="M 141.039062 89.660156 L 167.984375 89.660156 L 167.984375 115.378906 L 141.039062 115.378906 Z M 141.039062 89.660156 " clip-rule="nonzero"/></clipPath><clipPath id="da0a94f01d"><path d="M 155.496094 93.421875 C 143.597656 100.246094 145.347656 105.496094 146.398438 107.769531 C 147.273438 109.519531 148.148438 110.570312 149.722656 111.269531 C 151.648438 112.144531 155.496094 111.96875 157.59375 111.441406 C 159.34375 111.09375 160.746094 110.21875 161.792969 109.167969 C 162.84375 108.292969 163.894531 107.246094 164.242188 105.84375 C 164.769531 104.269531 164.941406 101.996094 164.070312 100.421875 C 163.019531 98.320312 159.871094 95.699219 156.894531 94.824219 C 153.921875 93.949219 147.796875 96.574219 145.875 95.871094 C 145.171875 95.523438 144.472656 94.824219 144.472656 94.296875 C 144.472656 93.597656 145.699219 92.375 146.222656 92.375 C 146.75 92.375 148.148438 94.125 147.972656 94.648438 C 147.796875 95.171875 146.046875 96.046875 145.523438 95.699219 C 145.171875 95.347656 144.824219 93.421875 145.523438 92.546875 C 146.398438 91.324219 150.074219 90.625 152.347656 90.625 C 154.445312 90.449219 156.371094 90.800781 158.46875 91.675781 C 160.917969 92.722656 164.070312 94.824219 165.816406 96.746094 C 167.042969 98.496094 167.742188 100.246094 167.917969 102.347656 C 168.09375 104.621094 167.21875 108.121094 165.644531 110.21875 C 163.71875 112.492188 159.695312 114.417969 156.71875 115.117188 C 154.097656 115.640625 151.121094 115.292969 149.023438 114.59375 C 147.273438 114.066406 146.046875 113.367188 145 111.96875 C 143.074219 109.34375 140.976562 101.996094 141.148438 98.847656 C 141.324219 97.097656 141.851562 96.222656 142.898438 94.996094 C 144.300781 93.421875 146.921875 91.847656 149.199219 90.972656 C 151.296875 90.273438 154.796875 89.398438 156.019531 89.925781 C 156.71875 90.273438 157.070312 91.5 157.070312 92.023438 C 156.894531 92.546875 155.496094 93.421875 155.496094 93.421875 " clip-rule="nonzero"/></clipPath><clipPath id="6c20604cc8"><path d="M 0.0390625 0.660156 L 26.984375 0.660156 L 26.984375 26.378906 L 0.0390625 26.378906 Z M 0.0390625 0.660156 " clip-rule="nonzero"/></clipPath><clipPath id="b5606479c2"><path d="M 14.496094 4.421875 C 2.597656 11.246094 4.347656 16.496094 5.398438 18.769531 C 6.273438 20.519531 7.148438 21.570312 8.722656 22.269531 C 10.648438 23.144531 14.496094 22.96875 16.59375 22.441406 C 18.34375 22.09375 19.746094 21.21875 20.792969 20.167969 C 21.84375 19.292969 22.894531 18.246094 23.242188 16.84375 C 23.769531 15.269531 23.941406 12.996094 23.070312 11.421875 C 22.019531 9.320312 18.871094 6.699219 15.894531 5.824219 C 12.921875 4.949219 6.796875 7.574219 4.875 6.871094 C 4.171875 6.523438 3.472656 5.824219 3.472656 5.296875 C 3.472656 4.597656 4.699219 3.375 5.222656 3.375 C 5.75 3.375 7.148438 5.125 6.972656 5.648438 C 6.796875 6.171875 5.046875 7.046875 4.523438 6.699219 C 4.171875 6.347656 3.824219 4.421875 4.523438 3.546875 C 5.398438 2.324219 9.074219 1.625 11.347656 1.625 C 13.445312 1.449219 15.371094 1.800781 17.46875 2.675781 C 19.917969 3.722656 23.070312 5.824219 24.816406 7.746094 C 26.042969 9.496094 26.742188 11.246094 26.917969 13.347656 C 27.09375 15.621094 26.21875 19.121094 24.644531 21.21875 C 22.71875 23.492188 18.695312 25.417969 15.71875 26.117188 C 13.097656 26.640625 10.121094 26.292969 8.023438 25.59375 C 6.273438 25.066406 5.046875 24.367188 4 22.96875 C 2.074219 20.34375 -0.0234375 12.996094 0.148438 9.847656 C 0.324219 8.097656 0.851562 7.222656 1.898438 5.996094 C 3.300781 4.421875 5.921875 2.847656 8.199219 1.972656 C 10.296875 1.273438 13.796875 0.398438 15.019531 0.925781 C 15.71875 1.273438 16.070312 2.5 16.070312 3.023438 C 15.894531 3.546875 14.496094 4.421875 14.496094 4.421875 " clip-rule="nonzero"/></clipPath><clipPath id="24c0588e95"><rect x="0" width="27" y="0" height="27"/></clipPath><clipPath id="a8c5ac679b"><path d="M 36.730469 113.863281 L 57.628906 113.863281 L 57.628906 134.492188 L 36.730469 134.492188 Z M 36.730469 113.863281 " clip-rule="nonzero"/></clipPath><clipPath id="e3e7eca48c"><path d="M 47.960938 122.5625 C 44.460938 124.3125 46.910156 125.1875 47.4375 124.835938 C 47.785156 124.484375 47.960938 122.910156 47.785156 122.738281 C 47.609375 122.738281 44.8125 125.011719 44.988281 125.710938 C 45.160156 126.585938 48.484375 127.984375 49.359375 127.636719 C 49.886719 127.285156 49.886719 125.710938 49.710938 125.1875 C 49.535156 124.660156 48.660156 123.960938 48.136719 123.960938 C 47.785156 124.136719 47.085938 125.1875 47.261719 125.710938 C 47.261719 126.234375 48.484375 126.933594 48.835938 126.761719 C 49.359375 126.410156 47.960938 121.6875 48.484375 121.511719 C 48.835938 121.335938 49.710938 122.210938 49.886719 122.738281 C 50.234375 123.4375 49.710938 125.1875 49.011719 125.535156 C 48.484375 125.886719 47.261719 125.710938 46.738281 125.1875 C 45.511719 123.960938 44.285156 116.964844 45.160156 116.261719 C 45.511719 115.914062 47.4375 116.4375 47.785156 117.136719 C 48.484375 118.363281 47.609375 123.261719 46.5625 124.484375 C 45.6875 125.1875 44.113281 125.710938 43.238281 125.1875 C 42.011719 124.484375 40.964844 118.886719 41.488281 117.488281 C 42.011719 116.4375 43.9375 115.386719 44.285156 115.738281 C 45.160156 116.261719 43.0625 125.359375 41.835938 126.058594 C 41.136719 126.234375 40.261719 125.710938 39.738281 125.011719 C 38.6875 123.785156 37.113281 119.414062 37.8125 118.363281 C 38.339844 117.664062 40.261719 117.136719 40.964844 117.664062 C 42.363281 118.710938 43.238281 125.886719 42.363281 126.933594 C 42.011719 127.460938 40.789062 127.285156 40.089844 126.933594 C 39.039062 126.410156 36.765625 123.785156 36.9375 123.085938 C 37.289062 122.386719 39.214844 121.863281 40.089844 122.210938 C 41.488281 122.910156 43.585938 129.210938 42.886719 130.085938 C 42.539062 130.609375 41.136719 130.609375 40.261719 130.257812 C 39.039062 129.382812 36.765625 125.886719 36.765625 124.484375 C 36.765625 123.609375 37.289062 122.738281 37.8125 122.386719 C 38.339844 122.210938 39.039062 122.5625 39.738281 122.910156 C 41.136719 123.960938 44.113281 128.160156 43.761719 129.734375 C 43.761719 130.609375 42.1875 131.660156 41.3125 131.484375 C 40.4375 131.484375 38.164062 129.558594 38.164062 128.683594 C 37.988281 127.808594 38.863281 126.585938 39.738281 126.234375 C 41.664062 125.710938 48.136719 131.832031 50.410156 130.960938 C 52.160156 130.085938 53.210938 125.1875 52.859375 123.4375 C 52.683594 122.035156 51.636719 120.636719 50.585938 120.113281 C 49.1875 119.761719 45.863281 122.210938 44.988281 121.6875 C 44.460938 121.335938 44.8125 120.285156 44.8125 119.414062 C 44.8125 118.710938 44.8125 117.664062 45.335938 117.136719 C 46.035156 116.4375 47.785156 115.386719 49.1875 115.738281 C 51.285156 116.261719 55.308594 120.988281 56.007812 123.4375 C 56.535156 125.1875 56.007812 127.460938 55.308594 128.683594 C 54.609375 129.734375 53.558594 130.785156 52.683594 130.785156 C 51.984375 130.960938 50.933594 130.609375 50.234375 129.734375 C 49.1875 127.984375 49.359375 121.160156 50.058594 118.710938 C 50.234375 117.488281 50.761719 116.261719 51.460938 115.914062 C 52.335938 115.5625 53.910156 116.089844 54.960938 116.789062 C 56.183594 117.835938 57.933594 121.511719 57.410156 122.5625 C 57.058594 123.261719 55.308594 123.785156 54.433594 123.4375 C 53.035156 122.910156 50.585938 117.136719 51.109375 116.261719 C 51.460938 115.914062 53.035156 115.738281 53.734375 116.4375 C 54.785156 117.488281 55.484375 122.738281 54.785156 125.535156 C 54.257812 127.984375 51.984375 130.960938 50.234375 132.183594 C 48.835938 133.058594 47.261719 133.410156 45.511719 133.234375 C 43.414062 132.707031 38.863281 129.558594 38.863281 128.859375 C 39.039062 128.335938 41.835938 127.808594 42.011719 128.160156 C 42.363281 128.507812 41.136719 130.960938 40.4375 130.960938 C 40.089844 130.960938 38.863281 129.558594 38.863281 129.035156 C 38.863281 128.507812 39.5625 127.636719 40.4375 127.460938 C 41.835938 127.109375 45.6875 130.433594 47.609375 129.734375 C 49.1875 129.382812 50.761719 127.285156 51.285156 125.359375 C 51.984375 123.085938 49.886719 118.539062 50.585938 117.136719 C 51.109375 116.261719 52.160156 115.738281 53.035156 115.914062 C 54.257812 116.089844 57.234375 120.460938 56.882812 120.988281 C 56.707031 121.511719 53.910156 120.988281 53.558594 120.460938 C 53.210938 120.113281 53.558594 118.539062 53.558594 118.539062 C 53.382812 118.539062 53.910156 130.257812 52.683594 130.785156 C 52.160156 131.132812 50.410156 130.085938 50.234375 129.382812 C 50.058594 128.683594 52.507812 127.636719 52.683594 126.585938 C 53.035156 125.359375 52.507812 123.960938 51.808594 122.738281 C 51.109375 121.511719 49.011719 119.414062 48.3125 119.585938 C 47.609375 119.761719 48.136719 123.085938 47.261719 123.609375 C 46.5625 124.136719 44.636719 123.785156 44.113281 123.261719 C 43.585938 122.738281 43.414062 121.160156 43.9375 120.113281 C 44.8125 118.710938 48.484375 116.261719 50.410156 116.4375 C 52.160156 116.613281 54.433594 118.710938 55.484375 120.460938 C 56.535156 122.738281 56.707031 126.761719 55.832031 129.035156 C 54.960938 131.308594 52.683594 133.933594 50.410156 134.28125 C 47.261719 134.984375 39.914062 130.960938 38.515625 129.382812 C 37.988281 128.683594 37.988281 127.808594 38.164062 127.285156 C 38.339844 126.761719 39.5625 126.234375 40.261719 126.410156 C 41.3125 126.585938 43.9375 128.859375 43.761719 129.734375 C 43.761719 130.433594 42.011719 131.484375 40.964844 131.308594 C 39.5625 130.960938 36.414062 125.886719 36.765625 124.484375 C 36.9375 123.609375 38.6875 122.386719 39.386719 122.738281 C 40.789062 123.085938 43.585938 129.210938 42.886719 130.085938 C 42.710938 130.609375 41.136719 130.609375 40.261719 130.257812 C 39.039062 129.382812 36.589844 124.484375 36.9375 123.085938 C 37.289062 122.210938 38.6875 121.511719 39.5625 121.6875 C 40.613281 122.035156 43.0625 126.058594 42.710938 126.585938 C 42.363281 127.109375 40.613281 127.285156 39.738281 126.585938 C 38.515625 125.710938 36.9375 119.585938 37.8125 118.363281 C 38.339844 117.488281 40.261719 117.136719 40.964844 117.664062 C 42.1875 118.539062 43.0625 125.1875 42.1875 125.886719 C 41.664062 126.234375 40.089844 125.710938 39.738281 125.011719 C 39.039062 123.960938 39.738281 121.511719 39.914062 119.9375 C 40.089844 118.1875 40.261719 115.738281 41.136719 114.863281 C 41.835938 114.164062 43.238281 113.640625 44.113281 114.164062 C 45.511719 115.214844 47.4375 122.738281 46.5625 124.484375 C 46.035156 125.359375 44.113281 125.886719 43.585938 125.535156 C 42.886719 125.011719 43.0625 122.035156 43.414062 120.460938 C 43.761719 118.886719 44.988281 115.914062 45.863281 115.914062 C 47.085938 115.914062 50.410156 122.910156 49.886719 124.136719 C 49.535156 125.011719 47.261719 125.535156 46.738281 125.1875 C 46.035156 124.660156 46.210938 121.863281 46.738281 120.8125 C 47.085938 119.761719 47.960938 118.539062 48.835938 118.539062 C 49.886719 118.710938 52.335938 121.863281 52.683594 123.609375 C 52.859375 125.535156 51.285156 129.382812 49.886719 129.910156 C 48.484375 130.433594 45.160156 128.683594 44.285156 127.285156 C 43.585938 126.234375 43.761719 124.660156 44.285156 123.4375 C 44.8125 122.210938 46.386719 120.285156 47.609375 120.113281 C 49.011719 119.9375 51.285156 121.511719 52.160156 122.738281 C 53.210938 124.136719 53.910156 127.109375 53.035156 128.507812 C 52.160156 129.910156 48.660156 131.132812 46.738281 130.960938 C 44.8125 130.609375 42.363281 128.859375 41.835938 127.285156 C 41.3125 125.535156 42.1875 122.035156 43.414062 120.8125 C 44.636719 119.761719 47.261719 119.238281 48.484375 119.761719 C 49.710938 120.285156 51.285156 121.863281 51.285156 123.261719 C 51.460938 124.835938 49.535156 127.808594 48.136719 128.507812 C 47.085938 129.210938 45.335938 129.035156 44.113281 128.507812 C 42.886719 127.808594 41.136719 125.886719 41.136719 124.484375 C 40.964844 123.261719 42.011719 121.511719 43.0625 120.636719 C 44.113281 119.761719 45.863281 119.0625 46.910156 119.238281 C 47.785156 119.238281 49.011719 119.9375 49.1875 120.460938 C 49.359375 121.160156 47.960938 122.5625 47.960938 122.5625 " clip-rule="nonzero"/></clipPath><clipPath id="042867048d"><path d="M 0.730469 0.863281 L 21.628906 0.863281 L 21.628906 21.492188 L 0.730469 21.492188 Z M 0.730469 0.863281 " clip-rule="nonzero"/></clipPath><clipPath id="2bd7ba42b6"><path d="M 11.960938 9.5625 C 8.460938 11.3125 10.910156 12.1875 11.4375 11.835938 C 11.785156 11.484375 11.960938 9.910156 11.785156 9.738281 C 11.609375 9.738281 8.8125 12.011719 8.988281 12.710938 C 9.160156 13.585938 12.484375 14.984375 13.359375 14.636719 C 13.886719 14.285156 13.886719 12.710938 13.710938 12.1875 C 13.535156 11.660156 12.660156 10.960938 12.136719 10.960938 C 11.785156 11.136719 11.085938 12.1875 11.261719 12.710938 C 11.261719 13.234375 12.484375 13.933594 12.835938 13.761719 C 13.359375 13.410156 11.960938 8.6875 12.484375 8.511719 C 12.835938 8.335938 13.710938 9.210938 13.886719 9.738281 C 14.234375 10.4375 13.710938 12.1875 13.011719 12.535156 C 12.484375 12.886719 11.261719 12.710938 10.738281 12.1875 C 9.511719 10.960938 8.285156 3.964844 9.160156 3.261719 C 9.511719 2.914062 11.4375 3.4375 11.785156 4.136719 C 12.484375 5.363281 11.609375 10.261719 10.5625 11.484375 C 9.6875 12.1875 8.113281 12.710938 7.238281 12.1875 C 6.011719 11.484375 4.964844 5.886719 5.488281 4.488281 C 6.011719 3.4375 7.9375 2.386719 8.285156 2.738281 C 9.160156 3.261719 7.0625 12.359375 5.835938 13.058594 C 5.136719 13.234375 4.261719 12.710938 3.738281 12.011719 C 2.6875 10.785156 1.113281 6.414062 1.8125 5.363281 C 2.339844 4.664062 4.261719 4.136719 4.964844 4.664062 C 6.363281 5.710938 7.238281 12.886719 6.363281 13.933594 C 6.011719 14.460938 4.789062 14.285156 4.089844 13.933594 C 3.039062 13.410156 0.765625 10.785156 0.9375 10.085938 C 1.289062 9.386719 3.214844 8.863281 4.089844 9.210938 C 5.488281 9.910156 7.585938 16.210938 6.886719 17.085938 C 6.539062 17.609375 5.136719 17.609375 4.261719 17.257812 C 3.039062 16.382812 0.765625 12.886719 0.765625 11.484375 C 0.765625 10.609375 1.289062 9.738281 1.8125 9.386719 C 2.339844 9.210938 3.039062 9.5625 3.738281 9.910156 C 5.136719 10.960938 8.113281 15.160156 7.761719 16.734375 C 7.761719 17.609375 6.1875 18.660156 5.3125 18.484375 C 4.4375 18.484375 2.164062 16.558594 2.164062 15.683594 C 1.988281 14.808594 2.863281 13.585938 3.738281 13.234375 C 5.664062 12.710938 12.136719 18.832031 14.410156 17.960938 C 16.160156 17.085938 17.210938 12.1875 16.859375 10.4375 C 16.683594 9.035156 15.636719 7.636719 14.585938 7.113281 C 13.1875 6.761719 9.863281 9.210938 8.988281 8.6875 C 8.460938 8.335938 8.8125 7.285156 8.8125 6.414062 C 8.8125 5.710938 8.8125 4.664062 9.335938 4.136719 C 10.035156 3.4375 11.785156 2.386719 13.1875 2.738281 C 15.285156 3.261719 19.308594 7.988281 20.007812 10.4375 C 20.535156 12.1875 20.007812 14.460938 19.308594 15.683594 C 18.609375 16.734375 17.558594 17.785156 16.683594 17.785156 C 15.984375 17.960938 14.933594 17.609375 14.234375 16.734375 C 13.1875 14.984375 13.359375 8.160156 14.058594 5.710938 C 14.234375 4.488281 14.761719 3.261719 15.460938 2.914062 C 16.335938 2.5625 17.910156 3.089844 18.960938 3.789062 C 20.183594 4.835938 21.933594 8.511719 21.410156 9.5625 C 21.058594 10.261719 19.308594 10.785156 18.433594 10.4375 C 17.035156 9.910156 14.585938 4.136719 15.109375 3.261719 C 15.460938 2.914062 17.035156 2.738281 17.734375 3.4375 C 18.785156 4.488281 19.484375 9.738281 18.785156 12.535156 C 18.257812 14.984375 15.984375 17.960938 14.234375 19.183594 C 12.835938 20.058594 11.261719 20.410156 9.511719 20.234375 C 7.414062 19.707031 2.863281 16.558594 2.863281 15.859375 C 3.039062 15.335938 5.835938 14.808594 6.011719 15.160156 C 6.363281 15.507812 5.136719 17.960938 4.4375 17.960938 C 4.089844 17.960938 2.863281 16.558594 2.863281 16.035156 C 2.863281 15.507812 3.5625 14.636719 4.4375 14.460938 C 5.835938 14.109375 9.6875 17.433594 11.609375 16.734375 C 13.1875 16.382812 14.761719 14.285156 15.285156 12.359375 C 15.984375 10.085938 13.886719 5.539062 14.585938 4.136719 C 15.109375 3.261719 16.160156 2.738281 17.035156 2.914062 C 18.257812 3.089844 21.234375 7.460938 20.882812 7.988281 C 20.707031 8.511719 17.910156 7.988281 17.558594 7.460938 C 17.210938 7.113281 17.558594 5.539062 17.558594 5.539062 C 17.382812 5.539062 17.910156 17.257812 16.683594 17.785156 C 16.160156 18.132812 14.410156 17.085938 14.234375 16.382812 C 14.058594 15.683594 16.507812 14.636719 16.683594 13.585938 C 17.035156 12.359375 16.507812 10.960938 15.808594 9.738281 C 15.109375 8.511719 13.011719 6.414062 12.3125 6.585938 C 11.609375 6.761719 12.136719 10.085938 11.261719 10.609375 C 10.5625 11.136719 8.636719 10.785156 8.113281 10.261719 C 7.585938 9.738281 7.414062 8.160156 7.9375 7.113281 C 8.8125 5.710938 12.484375 3.261719 14.410156 3.4375 C 16.160156 3.613281 18.433594 5.710938 19.484375 7.460938 C 20.535156 9.738281 20.707031 13.761719 19.832031 16.035156 C 18.960938 18.308594 16.683594 20.933594 14.410156 21.28125 C 11.261719 21.984375 3.914062 17.960938 2.515625 16.382812 C 1.988281 15.683594 1.988281 14.808594 2.164062 14.285156 C 2.339844 13.761719 3.5625 13.234375 4.261719 13.410156 C 5.3125 13.585938 7.9375 15.859375 7.761719 16.734375 C 7.761719 17.433594 6.011719 18.484375 4.964844 18.308594 C 3.5625 17.960938 0.414062 12.886719 0.765625 11.484375 C 0.9375 10.609375 2.6875 9.386719 3.386719 9.738281 C 4.789062 10.085938 7.585938 16.210938 6.886719 17.085938 C 6.710938 17.609375 5.136719 17.609375 4.261719 17.257812 C 3.039062 16.382812 0.589844 11.484375 0.9375 10.085938 C 1.289062 9.210938 2.6875 8.511719 3.5625 8.6875 C 4.613281 9.035156 7.0625 13.058594 6.710938 13.585938 C 6.363281 14.109375 4.613281 14.285156 3.738281 13.585938 C 2.515625 12.710938 0.9375 6.585938 1.8125 5.363281 C 2.339844 4.488281 4.261719 4.136719 4.964844 4.664062 C 6.1875 5.539062 7.0625 12.1875 6.1875 12.886719 C 5.664062 13.234375 4.089844 12.710938 3.738281 12.011719 C 3.039062 10.960938 3.738281 8.511719 3.914062 6.9375 C 4.089844 5.1875 4.261719 2.738281 5.136719 1.863281 C 5.835938 1.164062 7.238281 0.640625 8.113281 1.164062 C 9.511719 2.214844 11.4375 9.738281 10.5625 11.484375 C 10.035156 12.359375 8.113281 12.886719 7.585938 12.535156 C 6.886719 12.011719 7.0625 9.035156 7.414062 7.460938 C 7.761719 5.886719 8.988281 2.914062 9.863281 2.914062 C 11.085938 2.914062 14.410156 9.910156 13.886719 11.136719 C 13.535156 12.011719 11.261719 12.535156 10.738281 12.1875 C 10.035156 11.660156 10.210938 8.863281 10.738281 7.8125 C 11.085938 6.761719 11.960938 5.539062 12.835938 5.539062 C 13.886719 5.710938 16.335938 8.863281 16.683594 10.609375 C 16.859375 12.535156 15.285156 16.382812 13.886719 16.910156 C 12.484375 17.433594 9.160156 15.683594 8.285156 14.285156 C 7.585938 13.234375 7.761719 11.660156 8.285156 10.4375 C 8.8125 9.210938 10.386719 7.285156 11.609375 7.113281 C 13.011719 6.9375 15.285156 8.511719 16.160156 9.738281 C 17.210938 11.136719 17.910156 14.109375 17.035156 15.507812 C 16.160156 16.910156 12.660156 18.132812 10.738281 17.960938 C 8.8125 17.609375 6.363281 15.859375 5.835938 14.285156 C 5.3125 12.535156 6.1875 9.035156 7.414062 7.8125 C 8.636719 6.761719 11.261719 6.238281 12.484375 6.761719 C 13.710938 7.285156 15.285156 8.863281 15.285156 10.261719 C 15.460938 11.835938 13.535156 14.808594 12.136719 15.507812 C 11.085938 16.210938 9.335938 16.035156 8.113281 15.507812 C 6.886719 14.808594 5.136719 12.886719 5.136719 11.484375 C 4.964844 10.261719 6.011719 8.511719 7.0625 7.636719 C 8.113281 6.761719 9.863281 6.0625 10.910156 6.238281 C 11.785156 6.238281 13.011719 6.9375 13.1875 7.460938 C 13.359375 8.160156 11.960938 9.5625 11.960938 9.5625 " clip-rule="nonzero"/></clipPath><clipPath id="5c74bb231c"><rect x="0" width="22" y="0" height="22"/></clipPath><clipPath id="448ce2fc9d"><path d="M 144 92.226562 L 167 92.226562 L 167 112.347656 L 144 112.347656 Z M 144 92.226562 " clip-rule="nonzero"/></clipPath><clipPath id="caba392ae3"><path d="M 144.007812 102.09375 C 145.410156 98.941406 146.457031 98.242188 146.984375 98.070312 C 147.15625 97.894531 147.332031 97.894531 147.683594 97.71875 C 148.03125 97.367188 148.558594 96.320312 148.730469 95.617188 C 148.730469 95.09375 148.730469 94.394531 148.730469 94.042969 C 148.730469 93.871094 148.730469 93.871094 148.730469 93.695312 C 148.730469 93.519531 148.730469 93.34375 148.90625 93.34375 C 148.90625 93.167969 149.082031 92.996094 149.082031 92.996094 C 149.257812 92.820312 149.257812 92.644531 149.433594 92.644531 C 149.605469 92.644531 149.605469 92.46875 149.78125 92.46875 C 149.957031 92.46875 150.132812 92.296875 150.132812 92.296875 C 150.308594 92.296875 150.480469 92.296875 150.65625 92.296875 C 150.832031 92.296875 150.832031 92.46875 151.007812 92.46875 C 151.183594 92.46875 151.355469 92.644531 151.355469 92.644531 C 151.53125 92.644531 151.707031 92.820312 151.707031 92.996094 C 151.882812 92.996094 151.882812 93.167969 152.054688 93.34375 C 152.054688 93.34375 152.054688 93.519531 152.054688 93.695312 C 152.230469 93.871094 152.230469 93.871094 152.230469 94.042969 C 152.230469 94.21875 152.230469 94.394531 152.230469 94.394531 C 152.230469 94.394531 152.230469 94.394531 152.230469 94.21875 C 152.40625 94.21875 153.804688 93.167969 154.332031 93.34375 C 154.855469 93.34375 155.554688 94.21875 155.730469 94.21875 C 155.90625 94.21875 155.90625 94.21875 155.90625 94.21875 C 156.082031 94.21875 156.082031 94.21875 156.082031 94.21875 C 156.253906 94.21875 156.429688 94.21875 156.605469 94.21875 C 156.953125 94.21875 158.003906 94.394531 158.703125 94.570312 C 159.578125 94.746094 160.277344 95.09375 160.980469 95.269531 C 162.027344 95.617188 163.253906 95.96875 163.953125 96.667969 C 164.476562 97.019531 165.003906 97.71875 165.351562 98.242188 C 165.703125 98.941406 165.703125 99.644531 165.878906 100.34375 C 165.878906 100.691406 165.703125 101.21875 165.703125 101.566406 C 165.878906 101.917969 166.050781 102.09375 166.226562 102.441406 C 166.578125 102.96875 166.925781 104.015625 166.925781 104.890625 C 167.101562 105.765625 166.925781 106.816406 166.578125 107.691406 C 166.402344 108.390625 165.878906 109.089844 165.175781 109.613281 C 164.652344 110.140625 163.953125 110.488281 163.253906 110.839844 C 162.726562 111.191406 162.027344 111.539062 161.328125 111.714844 C 160.804688 111.890625 160.105469 111.890625 159.578125 112.0625 C 158.878906 112.238281 158.355469 112.238281 157.65625 112.238281 C 156.953125 112.414062 156.082031 112.238281 155.378906 112.238281 C 154.679688 112.238281 153.804688 112.414062 153.105469 112.238281 C 152.230469 112.238281 151.355469 111.890625 150.480469 111.714844 C 149.78125 111.539062 149.082031 111.363281 148.730469 111.015625 C 148.382812 111.015625 148.207031 110.664062 148.03125 110.664062 C 147.859375 110.664062 147.859375 111.015625 147.507812 111.015625 C 146.984375 111.191406 145.234375 111.015625 144.707031 110.488281 C 144.359375 109.964844 144.359375 108.390625 144.535156 107.691406 C 144.535156 107.164062 145.058594 106.816406 145.058594 106.464844 C 145.058594 106.292969 145.058594 106.292969 144.882812 106.117188 C 144.882812 105.765625 144.535156 104.890625 144.359375 104.191406 C 144.359375 103.492188 144.007812 102.09375 144.007812 102.09375 " clip-rule="nonzero"/></clipPath><clipPath id="8b998bc7a3"><path d="M 0 0.226562 L 23 0.226562 L 23 20.347656 L 0 20.347656 Z M 0 0.226562 " clip-rule="nonzero"/></clipPath><clipPath id="e4276b0399"><path d="M 0.0078125 10.09375 C 1.410156 6.941406 2.457031 6.242188 2.984375 6.070312 C 3.15625 5.894531 3.332031 5.894531 3.683594 5.71875 C 4.03125 5.367188 4.558594 4.320312 4.730469 3.617188 C 4.730469 3.09375 4.730469 2.394531 4.730469 2.042969 C 4.730469 1.871094 4.730469 1.871094 4.730469 1.695312 C 4.730469 1.519531 4.730469 1.34375 4.90625 1.34375 C 4.90625 1.167969 5.082031 0.996094 5.082031 0.996094 C 5.257812 0.820312 5.257812 0.644531 5.433594 0.644531 C 5.605469 0.644531 5.605469 0.46875 5.78125 0.46875 C 5.957031 0.46875 6.132812 0.296875 6.132812 0.296875 C 6.308594 0.296875 6.480469 0.296875 6.65625 0.296875 C 6.832031 0.296875 6.832031 0.46875 7.007812 0.46875 C 7.183594 0.46875 7.355469 0.644531 7.355469 0.644531 C 7.53125 0.644531 7.707031 0.820312 7.707031 0.996094 C 7.882812 0.996094 7.882812 1.167969 8.054688 1.34375 C 8.054688 1.34375 8.054688 1.519531 8.054688 1.695312 C 8.230469 1.871094 8.230469 1.871094 8.230469 2.042969 C 8.230469 2.21875 8.230469 2.394531 8.230469 2.394531 C 8.230469 2.394531 8.230469 2.394531 8.230469 2.21875 C 8.40625 2.21875 9.804688 1.167969 10.332031 1.34375 C 10.855469 1.34375 11.554688 2.21875 11.730469 2.21875 C 11.90625 2.21875 11.90625 2.21875 11.90625 2.21875 C 12.082031 2.21875 12.082031 2.21875 12.082031 2.21875 C 12.253906 2.21875 12.429688 2.21875 12.605469 2.21875 C 12.953125 2.21875 14.003906 2.394531 14.703125 2.570312 C 15.578125 2.746094 16.277344 3.09375 16.980469 3.269531 C 18.027344 3.617188 19.253906 3.96875 19.953125 4.667969 C 20.476562 5.019531 21.003906 5.71875 21.351562 6.242188 C 21.703125 6.941406 21.703125 7.644531 21.878906 8.34375 C 21.878906 8.691406 21.703125 9.21875 21.703125 9.566406 C 21.878906 9.917969 22.050781 10.09375 22.226562 10.441406 C 22.578125 10.96875 22.925781 12.015625 22.925781 12.890625 C 23.101562 13.765625 22.925781 14.816406 22.578125 15.691406 C 22.402344 16.390625 21.878906 17.089844 21.175781 17.613281 C 20.652344 18.140625 19.953125 18.488281 19.253906 18.839844 C 18.726562 19.191406 18.027344 19.539062 17.328125 19.714844 C 16.804688 19.890625 16.105469 19.890625 15.578125 20.0625 C 14.878906 20.238281 14.355469 20.238281 13.65625 20.238281 C 12.953125 20.414062 12.082031 20.238281 11.378906 20.238281 C 10.679688 20.238281 9.804688 20.414062 9.105469 20.238281 C 8.230469 20.238281 7.355469 19.890625 6.480469 19.714844 C 5.78125 19.539062 5.082031 19.363281 4.730469 19.015625 C 4.382812 19.015625 4.207031 18.664062 4.03125 18.664062 C 3.859375 18.664062 3.859375 19.015625 3.507812 19.015625 C 2.984375 19.191406 1.234375 19.015625 0.707031 18.488281 C 0.359375 17.964844 0.359375 16.390625 0.535156 15.691406 C 0.535156 15.164062 1.058594 14.816406 1.058594 14.464844 C 1.058594 14.292969 1.058594 14.292969 0.882812 14.117188 C 0.882812 13.765625 0.535156 12.890625 0.359375 12.191406 C 0.359375 11.492188 0.0078125 10.09375 0.0078125 10.09375 " clip-rule="nonzero"/></clipPath><clipPath id="fd0b7f0739"><rect x="0" width="23" y="0" height="21"/></clipPath><clipPath id="0b8a7ce9e6"><rect x="0" width="286" y="0" height="275"/></clipPath></defs><g clip-path="url(#2ccffb613d)"><g transform="matrix(1, 0, 0, 1, 0.000000000000000028, -0.000000000000023157)"><g clip-path="url(#0b8a7ce9e6)"><g clip-path="url(#d09fffea84)"><g clip-path="url(#af87f3af94)"><g transform="matrix(1, 0, 0, 1, 102, 128)"><g clip-path="url(#c36242f4a0)"><g clip-path="url(#604f0cb61f)"><g clip-path="url(#ad3f244aba)"><rect x="-206.286" width="495.072" fill="#a2abce" y="-228.191" height="475.632001" fill-opacity="1"/></g></g></g></g></g></g><g clip-path="url(#be7c4b912c)"><g clip-path="url(#98c9a18866)"><g transform="matrix(1, 0, 0, 1, 58, 5)"><g clip-path="url(#ad656c6324)"><g clip-path="url(#e32ef3dc26)"><g clip-path="url(#2fd116ed72)"><rect x="-162.286" width="495.072" fill="#a2abce" y="-105.191" height="475.632001" fill-opacity="1"/></g></g></g></g></g></g><g clip-path="url(#0ddeb0423a)"><g clip-path="url(#6b3a4a9de5)"><g transform="matrix(1, 0, 0, 1, 6, 74)"><g clip-path="url(#5f71aedb25)"><g clip-path="url(#26631262c2)"><g clip-path="url(#629166d0cc)"><rect x="-110.286" width="495.072" fill="#a2abce" y="-174.191" height="475.632001" fill-opacity="1"/></g></g></g></g></g></g><g clip-path="url(#957c33f781)"><g clip-path="url(#e661716b2a)"><g transform="matrix(1, 0, 0, 1, 81, 119)"><g clip-path="url(#b3bce3ac48)"><g clip-path="url(#4942792ac3)"><g clip-path="url(#bdd3929a11)"><rect x="-185.286" width="495.072" fill="#a2abce" y="-219.191" height="475.632001" fill-opacity="1"/></g></g></g></g></g></g><g clip-path="url(#ea7f0b2230)"><g clip-path="url(#1e868ed956)"><g transform="matrix(1, 0, 0, 1, 149, 30)"><g clip-path="url(#40d37538a8)"><g clip-path="url(#cf72c70fec)"><g clip-path="url(#84c4279375)"><rect x="-253.286" width="495.072" fill="#a2abce" y="-130.191" height="475.632001" fill-opacity="1"/></g></g></g></g></g></g><g clip-path="url(#ce2ff9a4b1)"><g clip-path="url(#fd04edc2a7)"><g transform="matrix(1, 0, 0, 1, 170, 34)"><g clip-path="url(#3e2513ccd1)"><g clip-path="url(#4ae729d152)"><g clip-path="url(#365c45c591)"><rect x="-274.286" width="495.072" fill="#a2abce" y="-134.191" height="475.632001" fill-opacity="1"/></g></g></g></g></g></g><g clip-path="url(#09abc603cb)"><g clip-path="url(#699d8b8c03)"><g transform="matrix(1, 0, 0, 1, 146, 52)"><g clip-path="url(#6f07c2a567)"><g clip-path="url(#4480b25276)"><g clip-path="url(#660474bc1d)"><rect x="-250.286" width="495.072" fill="#a2abce" y="-152.191" height="475.632001" fill-opacity="1"/></g></g></g></g></g></g><g clip-path="url(#113123b8d9)"><g clip-path="url(#94b42d99ba)"><g transform="matrix(1, 0, 0, 1, 167, 55)"><g clip-path="url(#9f862c129f)"><g clip-path="url(#8f166aa576)"><g clip-path="url(#9d56e6942e)"><rect x="-271.286" width="495.072" fill="#a2abce" y="-155.191" height="475.632001" fill-opacity="1"/></g></g></g></g></g></g><g clip-path="url(#8fc3279bdb)"><g clip-path="url(#ec8e66bd7d)"><g transform="matrix(1, 0, 0, 1, 34, 112)"><g clip-path="url(#0548cc07b2)"><g clip-path="url(#93e9f10de9)"><g clip-path="url(#82592a60f6)"><rect x="-138.286" width="495.072" fill="#a2abce" y="-212.191" height="475.632001" fill-opacity="1"/></g></g></g></g></g></g><g clip-path="url(#3dff084ceb)"><g clip-path="url(#da0a94f01d)"><g transform="matrix(1, 0, 0, 1, 141, 89)"><g clip-path="url(#24c0588e95)"><g clip-path="url(#6c20604cc8)"><g clip-path="url(#b5606479c2)"><rect x="-245.286" width="495.072" fill="#a2abce" y="-189.191" height="475.632001" fill-opacity="1"/></g></g></g></g></g></g><g clip-path="url(#a8c5ac679b)"><g clip-path="url(#e3e7eca48c)"><g transform="matrix(1, 0, 0, 1, 36, 113)"><g clip-path="url(#5c74bb231c)"><g clip-path="url(#042867048d)"><g clip-path="url(#2bd7ba42b6)"><rect x="-140.286" width="495.072" fill="#a2abce" y="-213.191" height="475.632001" fill-opacity="1"/></g></g></g></g></g></g><g clip-path="url(#448ce2fc9d)"><g clip-path="url(#caba392ae3)"><g transform="matrix(1, 0, 0, 1, 144, 92)"><g clip-path="url(#fd0b7f0739)"><g clip-path="url(#8b998bc7a3)"><g clip-path="url(#e4276b0399)"><rect x="-248.286" width="495.072" fill="#a2abce" y="-192.191" height="475.632001" fill-opacity="1"/></g></g></g></g></g></g></g></g></g></svg>